<?xml version="1.0" encoding="UTF-8" standalone="no"?>
<svg
   xmlns:dc="http://purl.org/dc/elements/1.1/"
   xmlns:cc="http://creativecommons.org/ns#"
   xmlns:rdf="http://www.w3.org/1999/02/22-rdf-syntax-ns#"
   xmlns:svg="http://www.w3.org/2000/svg"
   xmlns="http://www.w3.org/2000/svg"
   xmlns:sodipodi="http://sodipodi.sourceforge.net/DTD/sodipodi-0.dtd"
   xmlns:inkscape="http://www.inkscape.org/namespaces/inkscape"
   width="128.0px"
   height="128.0px"
   viewBox="0 0 128.0 128.0"
   version="1.1"
   id="SVGRoot"
   sodipodi:docname="sauklaue.svg"
   inkscape:version="1.0.1 (3bc2e813f5, 2020-09-07)">
  <defs
     id="defs18" />
  <sodipodi:namedview
     id="base"
     pagecolor="#ffffff"
     bordercolor="#666666"
     borderopacity="1.0"
     inkscape:pageopacity="0.0"
     inkscape:pageshadow="2"
     inkscape:zoom="5.6"
     inkscape:cx="85.785019"
     inkscape:cy="14.7288"
     inkscape:document-units="px"
     inkscape:current-layer="layer1"
     inkscape:document-rotation="0"
     showgrid="true"
     inkscape:window-width="3840"
     inkscape:window-height="2067"
     inkscape:window-x="0"
     inkscape:window-y="0"
     inkscape:window-maximized="1">
    <inkscape:grid
       type="xygrid"
       id="grid27" />
  </sodipodi:namedview>
  <metadata
     id="metadata21">
    <rdf:RDF>
      <cc:Work
         rdf:about="">
        <dc:format>image/svg+xml</dc:format>
        <dc:type
           rdf:resource="http://purl.org/dc/dcmitype/StillImage" />
        <dc:title></dc:title>
      </cc:Work>
    </rdf:RDF>
  </metadata>
  <g
     inkscape:label="Layer 1"
     inkscape:groupmode="layer"
     id="layer1">
    <rect
       style="fill:#005500;fill-rule:evenodd;stroke-width:0.953462"
       id="rect52"
       width="110"
       height="100"
       x="10"
       y="15" />
    <path
       style="fill:none;stroke:#ffdd55;stroke-width:6;stroke-linecap:round;stroke-linejoin:miter;stroke-opacity:1;stroke-miterlimit:4;stroke-dasharray:none"
       d="m 21,34 c 7,-4 8,-5 12,2 4,7 7,6 11,1 4,-5 8,-9 12,-3 4,6 10,7 13,0 3,-7 -2,-12 8,-6 10,6 3,18 11,15 8,-3 6,-21 13,-12 7,9 2,12 9,12"
       id="path56" />
    <path
       style="fill:none;stroke:#ffdd55;stroke-width:6;stroke-linecap:round;stroke-linejoin:miter;stroke-miterlimit:4;stroke-dasharray:none;stroke-opacity:1"
       d="m 20,74 c 10,-7 7,1 15.017857,9.964286 C 43.371141,93.303592 48,83 51.285714,79.571429 c 5.049739,-5.269293 14.267857,-18.125 20.267857,-5.125 C 77.553571,87.446429 73,94 77,90"
       id="path881"
       sodipodi:nodetypes="csssc" />
    <rect
       style="fill:#280b0b"
       id="rect54"
       width="59.646229"
       height="8.0802059"
       x="12.600491"
       y="113.54066"
       transform="rotate(-33.290459)" />
  </g>
</svg>
